<svg xmlns="http://www.w3.org/2000/svg" width="24" height="24" viewBox="0 0 24 24" fill="none"><mask id="k" maskUnits="userSpaceOnUse"><rect width="24" height="24" fill="#fff"/><path d="M7.5 12.5L17.5 12.5" fill="none" stroke="#000" stroke-width="2" stroke-linecap="butt" stroke-linejoin="round"/></mask><g mask="url(#k)"><path d="M5 16.5L5 16.5C4.8034 16.5 4.612 16.5 4.45 16.4868C4.272 16.4722 4.062 16.438 3.8506 16.3302C3.5576 16.1808 3.3192 15.9424 3.1698 15.6494C3.062 15.438 3.0278 15.228 3.0132 15.05C3 14.888 3 14.6966 3 14.5L3 14.5C3 14.3034 3 14.112 3.0132 13.95C3.0278 13.772 3.062 13.562 3.1698 13.3506C3.3192 13.0576 3.5576 12.8192 3.8506 12.6698C4.062 12.562 4.272 12.5278 4.45 12.5132C4.612 12.5 4.8034 12.5 5 12.5L6.3232 12.5C6.4389 12.5 6.5515 12.5 6.6506 12.4932C6.7595 12.4857 6.8928 12.4681 7.048 12.4127C7.2631 12.3358 7.4715 12.2132 7.6432 12.0625C7.767 11.9538 7.8471 11.8457 7.9066 11.7542C7.9606 11.6709 8.0153 11.5724 8.0715 11.4713L9.4285 9.0287C9.4847 8.9276 9.5394 8.8291 9.5934 8.7458C9.6529 8.6543 9.733 8.5462 9.8568 8.4375C10.0285 8.2868 10.2369 8.1642 10.452 8.0873C10.6072 8.0319 10.7405 8.0143 10.8494 8.0068C10.9485 8 11.0611 8 11.1768 8L13.8232 8C13.9389 8 14.0515 8 14.1506 8.0068C14.2595 8.0143 14.3928 8.0319 14.548 8.0873C14.7631 8.1642 14.9715 8.2868 15.1432 8.4375C15.267 8.5462 15.3471 8.6543 15.4066 8.7458C15.4606 8.8291 15.5153 8.9276 15.5715 9.0287L16.9285 11.4713C16.9847 11.5724 17.0394 11.6709 17.0934 11.7542C17.1529 11.8457 17.233 11.9538 17.3568 12.0625C17.5285 12.2132 17.7369 12.3358 17.952 12.4127C18.1072 12.4681 18.2405 12.4857 18.3494 12.4932C18.4485 12.5 18.5611 12.5 18.6768 12.5L19.25 12.5C19.422 12.5 19.5895 12.5 19.7312 12.5115C19.887 12.5243 20.0708 12.5542 20.2557 12.6486C20.5121 12.7793 20.7207 12.9879 20.8514 13.2443C20.9458 13.4292 20.9757 13.613 20.9885 13.7688C21 13.9105 21 14.078 21 14.25L21 14.5C21 14.6966 21 14.888 20.9868 15.05C20.9722 15.228 20.938 15.438 20.8302 15.6494C20.6808 15.9424 20.4424 16.1808 20.1494 16.3302C19.938 16.438 19.728 16.4722 19.55 16.4868C19.388 16.5 19.1966 16.5 19 16.5Z" fill="currentColor" stroke="currentColor" stroke-width="2" stroke-linejoin="round" stroke-linecap="round"/></g><circle cx="7.5" cy="20.5" r="1.5" fill="currentColor"/><circle cx="16.5" cy="20.5" r="1.5" fill="currentColor"/></svg>
