<svg xmlns="http://www.w3.org/2000/svg" width="24" height="24" viewBox="0 0 24 24" fill="none"><path d="M6 12.5L11.7348 18.2348C11.7752 18.2752 11.8073 18.3073 11.8353 18.331C11.864 18.3554 11.8911 18.3735 11.9224 18.3836C11.9728 18.4 12.0272 18.4 12.0776 18.3837C12.1089 18.3735 12.136 18.3554 12.1647 18.3311C12.1927 18.3073 12.2248 18.2752 12.2652 18.2348L18 12.5M6 6.5L11.7348 12.2348C11.7752 12.2752 11.8073 12.3073 11.8353 12.331C11.864 12.3554 11.8911 12.3735 11.9224 12.3836C11.9728 12.4 12.0272 12.4 12.0776 12.3837C12.1089 12.3735 12.136 12.3554 12.1647 12.3311C12.1927 12.3073 12.2248 12.2752 12.2652 12.2348L18 6.5" fill="none" stroke="currentColor" stroke-width="2" stroke-linecap="round" stroke-linejoin="round"/></svg>
