<svg xmlns="http://www.w3.org/2000/svg" width="24" height="24" viewBox="0 0 24 24" fill="none"><path d="M8.5 12 L8.5 7 A3.5 3.5 0 0 1 15.5 7 L15.5 12" fill="none" stroke="currentColor" stroke-width="2" stroke-linecap="round" stroke-linejoin="round"/><path d="M9 11L15 11C15.2949 11 15.582 11 15.825 11.0198C16.092 11.0417 16.407 11.093 16.7241 11.2547C17.1636 11.4788 17.5212 11.8364 17.7453 12.2759C17.907 12.593 17.9583 12.908 17.9802 13.175C18 13.418 18 13.7051 18 14L18 17C18 17.2949 18 17.582 17.9802 17.825C17.9583 18.092 17.907 18.407 17.7453 18.7241C17.5212 19.1636 17.1636 19.5212 16.7241 19.7453C16.407 19.907 16.092 19.9583 15.825 19.9802C15.582 20 15.2949 20 15 20L9 20C8.7051 20 8.418 20 8.175 19.9802C7.908 19.9583 7.593 19.907 7.2759 19.7453C6.8364 19.5212 6.4788 19.1636 6.2547 18.7241C6.093 18.407 6.0417 18.092 6.0198 17.825C6 17.582 6 17.2949 6 17L6 14C6 13.7051 6 13.418 6.0198 13.175C6.0417 12.908 6.093 12.593 6.2547 12.2759C6.4788 11.8364 6.8364 11.4788 7.2759 11.2547C7.593 11.093 7.908 11.0417 8.175 11.0198C8.418 11 8.7051 11 9 11Z" fill="none" stroke="currentColor" stroke-width="2" stroke-linecap="round" stroke-linejoin="round"/></svg>
