<svg xmlns="http://www.w3.org/2000/svg" width="24" height="24" viewBox="0 0 24 24" fill="none"><mask id="t" maskUnits="userSpaceOnUse"><rect width="24" height="24" fill="#fff"/><path d="M9.5 12L20 12" fill="none" stroke="#000" stroke-width="5" stroke-linecap="butt"/></mask><path d="M7.85 4L10.15 4C10.5285 4 10.8969 4 11.2088 4.0254C11.5514 4.0535 11.9557 4.1193 12.3626 4.3269C12.9266 4.6145 13.3855 5.0734 13.6731 5.6374C13.8806 6.0443 13.9465 6.4486 13.9746 6.7912C14 7.1031 14 7.4715 14 7.85L14 16.15C14 16.5285 14 16.8969 13.9746 17.2088C13.9465 17.5514 13.8806 17.9556 13.6731 18.3626C13.3855 18.9266 12.9266 19.3855 12.3626 19.6731C11.9557 19.8806 11.5514 19.9465 11.2088 19.9746C10.8969 20 10.5285 20 10.15 20L7.85 20C7.4715 20 7.1031 20 6.7912 19.9746C6.4486 19.9465 6.0443 19.8806 5.6374 19.6731C5.0734 19.3855 4.6145 18.9266 4.3269 18.3626C4.1193 17.9556 4.0535 17.5514 4.0254 17.2088C4 16.8969 4 16.5285 4 16.15L4 7.85C4 7.4715 4 7.1031 4.0254 6.7912C4.0535 6.4486 4.1193 6.0443 4.3269 5.6374C4.6145 5.0734 5.0734 4.6145 5.6374 4.3269C6.0443 4.1193 6.4486 4.0535 6.7912 4.0254C7.1031 4 7.4715 4 7.85 4Z" fill="none" stroke="currentColor" stroke-width="2" stroke-linejoin="round" mask="url(#t)"/><path d="M9.5 12L20 12M17 16L20.7348 12.2652C20.7752 12.2248 20.8073 12.1927 20.831 12.1647C20.8554 12.136 20.8735 12.1089 20.8836 12.0776C20.9 12.0272 20.9 11.9728 20.8837 11.9224C20.8735 11.8911 20.8554 11.864 20.8311 11.8353C20.8073 11.8073 20.7752 11.7752 20.7348 11.7348L17 8" fill="none" stroke="currentColor" stroke-width="2" stroke-linecap="round" stroke-linejoin="round"/></svg>
